<?xml version="1.0" standalone="no"?>
<!DOCTYPE svg PUBLIC "-//W3C//DTD SVG 20010904//EN"
 "http://www.w3.org/TR/2001/REC-SVG-20010904/DTD/svg10.dtd">
<svg version="1.0" xmlns="http://www.w3.org/2000/svg"
 width="2002.000000pt" height="2002.000000pt" viewBox="0 0 2002.000000 2002.000000"
 preserveAspectRatio="xMidYMid meet">
<metadata>
Created by potrace 1.14, written by Peter Selinger 2001-2017
</metadata>
<g transform="translate(0.000000,2002.000000) scale(0.100000,-0.100000)"
fill="#000000" stroke="none">
<path d="M9988 20015 c-2 -2 -111 -6 -243 -9 -132 -4 -260 -8 -285 -10 -24 -2
-97 -7 -162 -11 -64 -3 -125 -7 -135 -9 -10 -2 -54 -7 -98 -10 -44 -4 -91 -9
-105 -11 -14 -2 -55 -6 -91 -9 -71 -6 -88 -8 -239 -32 -52 -8 -115 -17 -140
-20 -38 -4 -210 -33 -290 -49 -14 -3 -41 -8 -60 -11 -58 -11 -61 -11 -170 -34
-133 -28 -108 -22 -305 -69 -93 -22 -210 -52 -260 -66 -49 -14 -133 -37 -185
-51 -102 -28 -592 -188 -625 -204 -11 -5 -69 -27 -130 -49 -107 -38 -351 -137
-409 -167 -16 -7 -33 -14 -37 -14 -4 0 -61 -25 -126 -56 -65 -31 -156 -73
-203 -95 -47 -21 -119 -56 -160 -77 -41 -21 -136 -71 -210 -109 -74 -39 -175
-94 -225 -123 -49 -29 -110 -64 -135 -78 -136 -77 -418 -256 -608 -386 -113
-77 -207 -145 -426 -309 -290 -216 -674 -553 -976 -857 -356 -357 -465 -479
-843 -950 -14 -17 -128 -171 -209 -280 -142 -194 -445 -662 -550 -850 -14 -25
-59 -106 -100 -180 -69 -122 -298 -572 -298 -583 0 -3 -17 -43 -39 -89 -74
-159 -90 -196 -166 -384 -131 -324 -265 -711 -353 -1024 -41 -145 -100 -370
-106 -400 -2 -14 -22 -106 -45 -205 -22 -99 -43 -196 -46 -215 -3 -19 -13 -73
-21 -120 -9 -47 -18 -96 -20 -110 -3 -14 -7 -36 -9 -50 -13 -65 -15 -78 -20
-115 -10 -76 -16 -120 -20 -145 -2 -14 -7 -49 -10 -79 -4 -30 -8 -63 -11 -74
-2 -10 -6 -45 -9 -76 -3 -31 -8 -74 -10 -96 -4 -36 -7 -72 -20 -216 -36 -391
-47 -1085 -21 -1374 3 -33 8 -109 11 -170 7 -122 36 -427 51 -540 3 -22 8 -53
10 -70 3 -31 12 -87 20 -140 3 -16 7 -43 9 -60 2 -16 7 -48 10 -70 4 -22 9
-53 11 -70 2 -16 9 -50 14 -75 5 -25 23 -119 40 -210 17 -91 38 -192 47 -225
8 -33 17 -70 19 -82 6 -31 71 -298 88 -358 136 -494 343 -1078 507 -1433 16
-35 29 -65 29 -67 0 -14 250 -522 323 -655 74 -137 228 -399 320 -545 93 -150
255 -394 267 -405 4 -3 16 -22 29 -43 13 -21 68 -97 123 -170 54 -73 109 -145
121 -162 27 -36 229 -288 236 -295 3 -3 24 -27 46 -55 196 -247 728 -795 1000
-1030 38 -33 105 -92 149 -131 67 -58 156 -130 416 -337 8 -7 89 -66 180 -133
561 -411 1155 -758 1785 -1044 173 -78 210 -94 430 -182 55 -22 109 -44 120
-49 98 -43 678 -235 875 -289 151 -41 317 -84 412 -105 62 -15 120 -28 128
-30 43 -10 377 -76 399 -79 14 -2 80 -13 146 -25 119 -20 157 -26 245 -36 25
-3 52 -7 60 -10 8 -2 44 -7 80 -10 36 -4 67 -8 70 -10 3 -2 46 -6 96 -9 50 -4
102 -9 115 -11 13 -2 60 -6 104 -10 44 -3 96 -8 115 -10 234 -26 1284 -26
1460 0 14 2 65 6 114 10 50 4 97 8 106 10 9 2 52 6 96 9 43 3 97 9 119 12 58
8 83 12 145 19 30 4 62 9 71 10 9 2 40 6 70 10 30 3 115 17 189 30 74 13 149
27 165 29 17 3 39 8 50 10 11 2 40 7 65 11 25 4 52 9 60 11 8 2 47 10 85 19
39 9 77 18 85 20 38 9 107 24 130 28 89 17 475 122 675 183 635 197 1313 484
1860 789 546 305 978 594 1435 959 312 250 521 437 810 726 224 224 318 324
506 540 21 25 41 47 44 50 5 5 90 109 127 155 9 11 37 45 63 75 25 30 93 117
151 194 268 356 505 710 692 1036 181 314 301 545 442 850 92 198 276 643 290
700 2 8 26 75 54 148 27 73 49 134 48 135 0 1 25 81 56 177 93 293 201 698
241 905 3 11 9 40 14 65 6 25 13 63 16 85 4 22 8 47 11 55 2 8 6 26 9 40 3 22
31 168 42 224 2 10 6 44 10 75 3 31 8 58 9 61 2 3 6 30 10 60 6 53 9 72 19
135 8 48 15 106 21 165 11 108 15 156 20 200 6 46 9 94 20 255 3 50 8 117 11
150 28 326 11 1139 -31 1495 -2 19 -7 67 -10 105 -9 96 -16 160 -36 295 -6 41
-12 86 -14 100 -14 104 -23 155 -60 355 -3 17 -8 46 -11 65 -3 19 -17 87 -31
150 -13 63 -26 124 -28 135 -3 11 -16 72 -31 135 -14 63 -27 123 -29 133 -2
10 -9 32 -15 50 -6 18 -30 106 -54 197 -73 280 -225 734 -339 1015 -98 241
-117 286 -191 450 -340 750 -768 1446 -1295 2109 -80 99 -190 233 -245 296
-56 63 -114 130 -131 149 -69 80 -202 218 -390 406 -192 191 -249 245 -465
436 -222 197 -642 525 -875 682 -55 38 -125 85 -155 106 -67 47 -370 239 -431
273 -24 14 -105 60 -179 103 -194 112 -529 286 -680 353 -25 11 -85 39 -135
62 -291 135 -671 282 -1030 398 -261 84 -280 90 -488 147 -272 76 -785 185
-1028 220 -57 8 -115 17 -129 19 -36 7 -88 14 -145 21 -27 3 -61 8 -75 10 -14
3 -52 7 -85 10 -33 3 -73 8 -90 10 -16 2 -66 7 -110 10 -44 4 -89 8 -101 10
-12 2 -75 6 -140 10 -65 4 -135 9 -154 11 -19 2 -141 6 -270 9 -129 4 -250 7
-267 9 -18 2 -34 2 -35 1z m532 -459 c36 -3 105 -8 153 -11 48 -3 107 -8 130
-10 23 -2 77 -6 120 -10 43 -4 88 -8 100 -10 12 -2 49 -6 82 -10 33 -3 78 -9
100 -11 46 -6 228 -32 265 -38 14 -2 59 -10 100 -16 150 -24 520 -100 680
-140 91 -22 174 -42 185 -44 11 -2 76 -20 145 -41 69 -20 150 -43 180 -51 121
-32 585 -191 655 -224 11 -5 56 -23 100 -39 89 -32 439 -183 555 -238 475
-228 801 -411 1190 -667 261 -173 634 -446 805 -590 330 -278 410 -351 691
-631 233 -233 366 -374 489 -520 37 -44 77 -91 89 -105 342 -395 802 -1069
1056 -1545 23 -44 57 -107 75 -140 148 -273 363 -747 477 -1055 67 -179 129
-351 133 -370 2 -8 19 -62 38 -120 78 -233 224 -785 252 -950 3 -19 19 -100
35 -180 32 -163 36 -185 51 -290 18 -132 28 -198 35 -234 3 -18 7 -49 19 -168
3 -27 7 -69 10 -95 13 -114 15 -142 21 -208 22 -285 28 -440 28 -780 0 -308
-6 -514 -19 -665 -2 -25 -6 -83 -10 -130 -12 -153 -15 -184 -20 -222 -8 -57
-14 -107 -20 -168 -4 -30 -8 -66 -10 -80 -2 -14 -6 -45 -9 -70 -3 -25 -8 -56
-11 -70 -3 -14 -7 -38 -9 -55 -12 -77 -26 -164 -32 -200 -3 -22 -16 -92 -29
-155 -13 -63 -26 -126 -29 -140 -45 -245 -191 -782 -296 -1094 -81 -240 -212
-582 -283 -736 -14 -30 -36 -82 -50 -115 -124 -294 -433 -879 -612 -1155 -233
-361 -387 -580 -573 -820 -110 -141 -327 -403 -398 -480 -22 -25 -70 -76 -105
-115 -100 -111 -494 -502 -604 -601 -158 -142 -181 -163 -340 -296 -125 -104
-469 -369 -541 -416 -10 -7 -68 -47 -129 -90 -604 -426 -1402 -838 -2130
-1102 -110 -40 -207 -75 -215 -78 -8 -3 -17 -6 -20 -7 -3 -1 -84 -27 -180 -57
-162 -52 -372 -114 -420 -123 -11 -2 -24 -6 -28 -9 -4 -2 -68 -19 -142 -36
-74 -17 -142 -33 -150 -35 -47 -12 -258 -56 -289 -61 -20 -3 -42 -7 -50 -10
-8 -2 -30 -7 -50 -10 -20 -3 -67 -12 -106 -19 -38 -8 -95 -17 -125 -20 -30 -4
-57 -8 -60 -10 -3 -1 -32 -6 -65 -10 -32 -3 -62 -8 -65 -10 -5 -3 -100 -15
-155 -20 -16 -2 -52 -6 -80 -9 -27 -4 -72 -8 -100 -11 -27 -2 -68 -7 -90 -9
-70 -9 -211 -20 -431 -32 -160 -10 -812 -10 -954 0 -241 15 -399 27 -424 32
-12 2 -55 6 -96 10 -41 3 -86 7 -100 9 -14 2 -50 7 -80 10 -55 6 -93 11 -140
20 -14 2 -45 7 -70 10 -25 3 -56 8 -70 10 -43 8 -85 15 -122 19 -19 3 -93 16
-164 30 -71 14 -145 28 -164 31 -19 3 -84 17 -145 31 -60 14 -119 27 -130 29
-134 28 -550 143 -725 201 -58 20 -112 37 -120 39 -67 16 -535 193 -685 260
-16 7 -74 32 -128 54 -147 63 -441 204 -614 297 -82 44 -122 65 -233 126 -338
186 -780 479 -1135 752 -143 109 -428 342 -485 396 -9 8 -61 55 -115 105 -184
164 -584 571 -749 760 -44 50 -91 104 -106 120 -28 32 -215 264 -265 329 -16
22 -48 62 -70 90 -23 28 -85 114 -140 191 -54 77 -101 142 -105 145 -7 6 -237
357 -262 400 -10 17 -60 101 -111 188 -171 286 -315 563 -477 917 -18 39 -41
92 -51 118 -11 27 -32 76 -48 110 -49 106 -206 523 -269 717 -70 213 -167 547
-186 640 -3 14 -19 81 -36 149 -26 107 -43 184 -64 291 -3 14 -7 36 -10 50
-22 100 -34 163 -42 214 -3 22 -7 43 -9 46 -1 3 -6 30 -9 61 -4 31 -9 67 -11
80 -3 13 -7 39 -10 59 -3 20 -7 45 -9 56 -2 12 -7 45 -11 75 -3 30 -8 70 -10
89 -3 19 -7 58 -9 85 -3 28 -7 66 -10 85 -13 93 -16 132 -21 212 -3 48 -8 108
-10 135 -20 230 -27 898 -11 1138 4 66 9 154 12 195 5 92 12 179 20 245 3 28
7 66 9 85 2 19 7 64 10 100 4 36 8 76 10 90 2 14 11 75 20 135 9 61 18 121 20
135 2 14 7 43 9 65 3 22 7 49 10 60 2 11 6 36 10 55 3 19 8 46 11 60 3 14 7
36 9 50 7 46 47 244 66 325 25 107 51 217 55 235 79 355 315 1057 490 1455 7
17 29 66 48 110 109 250 308 645 429 848 32 55 58 100 58 102 0 15 302 491
379 597 31 42 76 107 101 143 73 108 384 511 420 545 3 3 41 48 85 100 44 52
86 102 95 110 8 8 51 56 95 105 101 114 495 510 640 643 61 55 159 141 219
192 60 50 115 98 123 106 8 8 31 27 51 42 21 15 39 29 42 32 15 17 287 223
430 325 420 302 854 563 1305 788 144 72 324 157 331 157 2 0 33 13 68 30 36
16 94 41 128 55 35 14 77 33 93 41 128 62 837 311 965 339 16 3 98 26 115 32
49 16 472 120 590 144 83 17 159 33 170 35 11 2 34 7 50 9 17 3 38 8 48 11 11
3 29 7 40 9 56 7 127 17 172 25 28 5 68 12 90 15 23 3 50 7 61 9 12 2 45 7 75
11 30 3 70 8 89 10 19 2 60 7 90 10 30 3 71 8 90 10 71 10 117 14 210 20 52 4
111 8 130 10 19 2 107 7 195 11 88 3 161 8 163 9 6 5 740 -4 812 -9z"/>
<path d="M9718 19295 c-2 -1 -77 -6 -168 -9 -91 -4 -181 -9 -200 -11 -19 -2
-73 -6 -120 -9 -47 -4 -96 -8 -110 -10 -14 -3 -54 -7 -90 -10 -117 -12 -216
-23 -261 -31 -13 -2 -73 -11 -134 -20 -172 -25 -171 -25 -405 -71 -218 -42
-175 -33 -385 -82 -93 -22 -251 -64 -350 -92 -99 -29 -187 -53 -195 -55 -46
-11 -429 -141 -570 -195 -767 -292 -1495 -683 -2150 -1155 -145 -105 -426
-321 -502 -387 -14 -13 -37 -32 -50 -42 -65 -54 -173 -148 -258 -225 -128
-116 -547 -535 -640 -640 -41 -47 -88 -99 -105 -117 -16 -18 -37 -41 -45 -51
-8 -10 -67 -81 -131 -158 -63 -77 -160 -198 -214 -270 -55 -71 -102 -132 -105
-135 -22 -18 -362 -528 -457 -685 -173 -287 -387 -690 -495 -930 -113 -251
-102 -226 -171 -395 -82 -200 -177 -462 -240 -660 -68 -217 -70 -223 -73 -235
-1 -5 -18 -68 -39 -140 -20 -71 -38 -137 -40 -145 -2 -8 -16 -64 -30 -125 -15
-60 -29 -121 -32 -135 -2 -14 -11 -51 -19 -83 -12 -49 -32 -148 -59 -302 -3
-16 -12 -66 -20 -110 -19 -109 -26 -150 -40 -260 -5 -38 -25 -182 -30 -215 -2
-14 -7 -61 -11 -105 -3 -44 -8 -88 -9 -97 -2 -9 -7 -57 -10 -105 -4 -48 -8
-104 -10 -123 -20 -211 -26 -892 -11 -1145 17 -265 24 -371 30 -405 3 -14 7
-56 11 -95 3 -38 8 -81 10 -95 2 -14 7 -50 10 -81 3 -31 7 -65 9 -75 2 -11 7
-39 10 -64 3 -25 8 -56 10 -70 5 -26 12 -76 21 -137 3 -21 10 -60 15 -88 5
-27 12 -61 14 -75 22 -119 58 -301 71 -357 9 -37 18 -75 20 -83 1 -8 8 -35 15
-60 7 -25 14 -56 16 -70 3 -14 7 -33 10 -42 3 -9 6 -25 8 -35 2 -10 13 -49 24
-88 12 -38 37 -127 56 -196 66 -234 251 -768 306 -884 5 -11 30 -69 56 -130
62 -149 69 -165 122 -280 117 -253 298 -599 412 -790 26 -44 57 -96 69 -115
11 -19 24 -42 28 -50 4 -8 54 -87 111 -175 152 -233 156 -240 162 -245 3 -3
50 -68 105 -145 107 -152 317 -424 400 -520 28 -33 78 -91 110 -130 33 -38 64
-75 70 -81 5 -6 48 -53 95 -105 115 -127 502 -514 624 -624 55 -50 107 -97
116 -105 13 -13 112 -95 209 -175 14 -11 41 -34 60 -51 47 -41 332 -260 396
-304 28 -19 52 -37 55 -40 37 -37 570 -383 710 -462 25 -14 90 -51 145 -83
100 -58 571 -299 675 -344 30 -14 82 -37 115 -52 361 -163 939 -368 1315 -468
41 -11 118 -31 170 -45 52 -14 106 -27 120 -30 14 -2 77 -17 140 -31 63 -15
126 -29 140 -31 14 -2 36 -7 50 -10 14 -3 39 -8 55 -10 17 -3 50 -9 75 -14 52
-11 263 -46 330 -55 25 -3 52 -8 60 -10 8 -2 42 -7 75 -10 32 -4 62 -8 65 -10
3 -2 37 -6 75 -10 39 -3 88 -8 110 -10 22 -2 69 -7 105 -10 36 -3 81 -8 100
-11 20 -2 71 -6 115 -8 44 -3 132 -8 195 -12 148 -10 756 -11 925 -1 238 14
270 16 320 22 54 6 101 10 210 19 39 4 86 8 105 11 19 3 55 7 80 10 25 3 70
10 100 15 30 6 77 13 105 16 27 3 62 7 77 10 16 2 40 6 56 8 15 3 68 12 117
21 125 24 127 24 155 30 14 2 41 7 60 10 19 4 55 11 80 16 25 6 52 12 60 14
338 77 584 143 860 232 185 59 511 178 658 239 248 104 296 125 402 174 844
393 1613 900 2310 1523 137 122 507 488 635 628 217 237 510 594 635 774 19
28 37 52 40 55 3 3 39 52 80 110 173 244 429 657 560 905 29 55 56 105 60 110
27 39 244 491 296 620 14 33 29 69 34 80 165 357 385 1036 500 1540 7 28 13
57 15 65 9 35 34 157 38 185 3 17 10 50 15 75 13 52 48 255 58 326 3 27 8 58
10 69 2 11 7 40 10 65 3 25 8 54 10 65 2 11 6 43 9 70 3 28 8 70 11 95 2 25 7
65 9 90 2 25 7 63 9 85 9 72 16 149 21 230 2 44 7 125 11 180 10 145 10 787 1
945 -12 202 -15 249 -22 320 -3 36 -8 90 -11 120 -3 30 -7 71 -9 90 -2 19 -7
63 -10 98 -4 35 -8 73 -11 85 -2 12 -6 42 -9 67 -3 25 -8 56 -10 70 -3 14 -7
43 -11 65 -27 196 -76 458 -116 630 -16 72 -31 137 -33 145 -8 42 -48 198 -75
295 -17 61 -38 135 -46 165 -8 30 -35 118 -60 195 -25 77 -47 147 -49 156 -8
37 -181 489 -248 650 -133 312 -337 728 -477 969 -40 69 -81 141 -92 160 -77
136 -367 581 -435 665 -4 6 -24 33 -43 60 -91 130 -462 595 -544 681 -6 6 -51
56 -100 110 -163 181 -600 609 -750 736 -22 18 -90 76 -152 128 -61 52 -129
108 -150 125 -22 16 -80 62 -129 100 -349 273 -865 610 -1256 820 -106 58
-606 305 -615 305 -3 0 -24 8 -47 19 -448 201 -1069 416 -1507 520 -290 68
-470 107 -590 127 -14 2 -36 7 -50 10 -13 3 -40 8 -60 10 -19 2 -46 7 -60 9
-26 5 -139 23 -199 31 -19 2 -46 6 -60 9 -35 5 -94 13 -161 20 -30 3 -71 8
-90 10 -31 4 -89 10 -195 20 -16 2 -82 6 -145 10 -63 4 -133 9 -155 11 -43 5
-782 13 -787 9z m692 -129 c185 -10 313 -18 345 -21 58 -6 151 -15 215 -21 36
-3 76 -7 90 -9 14 -2 48 -6 75 -9 28 -4 61 -8 75 -11 26 -4 58 -9 145 -20 28
-3 73 -10 100 -15 89 -17 109 -20 145 -25 19 -3 55 -10 80 -15 25 -5 61 -12
80 -14 19 -3 67 -12 105 -22 39 -9 81 -18 95 -20 14 -3 54 -12 90 -20 36 -9
76 -18 90 -20 32 -6 269 -69 380 -101 47 -13 92 -26 100 -28 8 -1 67 -19 130
-40 63 -20 138 -44 165 -52 54 -17 372 -133 445 -163 425 -173 772 -335 1075
-504 37 -21 240 -137 255 -146 357 -219 570 -361 830 -559 216 -163 477 -377
600 -491 9 -8 62 -57 118 -108 139 -128 377 -366 492 -491 52 -57 102 -111
111 -120 8 -9 51 -59 95 -111 43 -52 93 -110 111 -130 17 -19 72 -87 122 -150
50 -63 104 -132 121 -152 17 -21 73 -97 125 -170 52 -73 99 -138 104 -145 6
-7 43 -61 82 -120 39 -59 94 -141 121 -182 60 -90 249 -407 308 -516 24 -44
56 -103 71 -131 31 -57 140 -275 212 -424 64 -133 178 -404 257 -610 59 -154
216 -614 225 -659 2 -9 22 -81 45 -161 23 -80 44 -156 46 -170 3 -14 7 -33 10
-42 3 -9 6 -25 8 -35 2 -10 14 -56 26 -103 12 -47 23 -92 25 -100 8 -34 45
-223 50 -253 3 -17 8 -39 10 -47 2 -8 7 -35 10 -60 4 -24 8 -47 10 -50 2 -3 6
-26 10 -50 3 -25 8 -58 11 -75 3 -16 7 -41 9 -55 7 -47 17 -115 20 -130 7 -37
15 -99 20 -150 3 -30 8 -71 10 -90 2 -19 7 -66 11 -105 3 -38 8 -78 9 -87 2
-9 6 -59 10 -110 3 -51 8 -120 11 -153 17 -232 22 -737 10 -980 -8 -168 -16
-291 -21 -335 -5 -38 -11 -113 -20 -230 -3 -41 -10 -102 -15 -135 -14 -94 -23
-159 -35 -250 -3 -27 -11 -74 -17 -104 -5 -30 -11 -64 -13 -75 -11 -83 -62
-344 -99 -506 -316 -1394 -964 -2711 -1872 -3805 -73 -88 -144 -172 -157 -187
-110 -125 -163 -183 -232 -256 -135 -143 -325 -332 -439 -437 -60 -55 -114
-105 -120 -110 -93 -86 -360 -307 -551 -455 -38 -30 -74 -59 -80 -63 -92 -76
-590 -408 -785 -524 -306 -182 -733 -404 -945 -493 -11 -4 -40 -17 -65 -28
-355 -156 -989 -385 -1159 -418 -14 -3 -27 -7 -31 -9 -7 -4 -141 -41 -205 -57
-63 -15 -65 -16 -175 -43 -97 -24 -254 -58 -325 -71 -16 -3 -48 -9 -70 -14
-38 -9 -67 -14 -137 -25 -18 -3 -58 -10 -88 -15 -30 -5 -73 -12 -95 -15 -22
-3 -50 -8 -63 -11 -12 -2 -42 -7 -66 -10 -24 -2 -53 -7 -64 -9 -21 -4 -135
-16 -182 -20 -26 -2 -121 -13 -178 -21 -18 -2 -79 -6 -135 -9 -56 -3 -115 -7
-132 -10 -165 -23 -892 -24 -1160 -1 -33 3 -100 8 -150 11 -49 3 -103 7 -120
9 -16 2 -59 7 -95 11 -36 4 -76 8 -90 10 -14 2 -54 6 -90 9 -36 4 -75 8 -85
10 -11 2 -42 7 -68 10 -27 4 -56 9 -65 11 -10 1 -37 6 -62 9 -25 3 -56 8 -70
10 -14 3 -43 7 -65 11 -22 3 -47 7 -55 10 -8 2 -32 6 -53 9 -51 8 -279 53
-352 71 -33 8 -109 26 -169 40 -59 15 -116 28 -125 31 -367 88 -1041 322
-1409 490 -29 13 -54 24 -57 24 -12 0 -423 201 -526 257 -30 17 -99 54 -154
83 -212 114 -617 366 -809 505 -46 33 -109 78 -141 100 -72 50 -423 324 -496
387 -30 25 -94 81 -144 124 -526 451 -1080 1070 -1498 1671 -134 193 -417 640
-417 658 0 2 -21 39 -46 82 -69 116 -314 589 -314 606 0 3 -20 47 -44 99 -51
108 -217 510 -241 583 -9 28 -22 64 -30 80 -20 44 -141 413 -176 535 -16 58
-36 128 -44 155 -63 221 -140 560 -180 790 -14 83 -30 173 -35 200 -5 28 -11
70 -15 95 -3 25 -7 54 -9 65 -2 11 -7 47 -10 80 -4 33 -9 67 -11 75 -4 17 -12
93 -20 185 -3 33 -8 85 -11 115 -9 78 -12 121 -19 235 -3 55 -8 150 -12 210
-12 203 -5 837 11 975 3 19 7 80 11 135 7 108 9 133 19 210 3 28 11 95 16 150
6 55 17 141 24 190 16 97 23 144 32 203 5 40 21 134 28 167 2 11 18 90 34 175
31 154 122 539 147 615 7 22 27 91 45 154 142 506 450 1264 697 1711 16 30 52
96 78 145 27 50 67 119 88 155 22 36 48 79 57 95 231 405 668 1002 1035 1411
203 226 550 572 728 726 12 11 40 36 62 57 67 63 362 302 516 418 230 176 603
428 817 554 118 70 332 190 402 227 123 64 418 212 423 212 3 0 47 20 99 44
51 24 118 53 148 66 69 28 111 46 153 65 78 35 287 115 301 115 8 0 17 4 20 9
3 5 16 11 28 14 13 3 66 21 118 40 233 85 929 284 970 276 3 0 17 4 31 9 14 6
41 13 60 16 19 3 63 12 99 20 36 8 79 17 95 20 168 28 281 49 286 51 3 2 26 6
51 9 26 3 63 8 82 11 67 9 101 14 151 20 28 3 75 10 105 15 30 5 91 12 135 15
95 8 129 11 215 19 100 10 189 15 380 22 96 4 176 7 177 8 5 4 479 -2 583 -8z"/>
<path d="M9747 18614 c-1 -1 -69 -5 -152 -8 -82 -4 -166 -9 -185 -10 -19 -2
-79 -7 -133 -11 -54 -3 -105 -8 -115 -9 -9 -2 -44 -7 -77 -10 -166 -18 -255
-30 -315 -41 -14 -3 -47 -7 -75 -11 -27 -3 -59 -8 -70 -10 -10 -2 -37 -6 -60
-9 -22 -4 -105 -19 -185 -35 -80 -16 -160 -32 -178 -35 -17 -3 -96 -21 -175
-41 -78 -19 -149 -37 -157 -39 -56 -13 -97 -24 -275 -76 -249 -72 -598 -190
-680 -229 -11 -5 -62 -25 -113 -45 -96 -36 -182 -73 -310 -131 -41 -19 -75
-34 -78 -34 -13 0 -418 -205 -538 -272 -77 -43 -140 -78 -142 -78 -4 0 -137
-80 -271 -163 -355 -219 -816 -559 -1088 -801 -38 -35 -110 -99 -160 -143
-164 -146 -525 -512 -645 -653 -30 -35 -62 -72 -70 -81 -59 -64 -99 -113 -215
-259 -478 -599 -871 -1253 -1171 -1946 -133 -307 -298 -765 -369 -1024 -46
-166 -94 -344 -99 -370 -2 -14 -16 -72 -30 -130 -29 -122 -93 -454 -101 -520
-3 -25 -7 -56 -10 -70 -6 -30 -12 -70 -20 -130 -3 -25 -8 -56 -10 -70 -2 -14
-6 -50 -10 -80 -3 -30 -8 -71 -10 -90 -2 -19 -7 -62 -10 -95 -3 -33 -7 -82
-10 -110 -19 -203 -28 -411 -29 -695 0 -241 9 -559 18 -635 3 -16 7 -76 11
-132 3 -57 8 -111 9 -120 2 -10 7 -49 10 -88 4 -38 9 -77 11 -85 2 -8 6 -44
10 -80 8 -78 10 -96 24 -180 6 -36 13 -83 16 -105 4 -22 8 -47 10 -55 3 -8 7
-33 10 -55 5 -42 6 -48 30 -165 8 -41 17 -86 20 -100 18 -97 118 -497 158
-635 85 -289 222 -684 297 -850 10 -22 21 -51 25 -64 24 -79 298 -653 386
-807 12 -21 33 -59 47 -84 13 -25 28 -49 32 -55 4 -5 22 -37 40 -70 49 -92
240 -394 347 -550 187 -272 469 -631 668 -850 39 -44 92 -102 116 -129 75 -83
359 -366 474 -472 440 -406 965 -795 1479 -1097 138 -81 235 -134 461 -252
228 -119 621 -290 915 -398 189 -70 558 -190 620 -202 11 -2 35 -9 53 -15 79
-26 327 -88 427 -106 14 -3 50 -11 80 -19 30 -8 96 -21 145 -30 50 -10 99 -19
110 -21 36 -7 200 -35 235 -40 19 -3 46 -7 60 -9 71 -11 281 -37 325 -41 28
-2 73 -6 100 -9 325 -36 811 -49 1222 -31 171 7 191 8 328 21 39 4 86 8 105
10 138 12 183 17 305 34 39 6 90 13 115 16 89 12 117 17 270 45 85 16 169 31
185 34 93 16 455 103 590 142 28 8 53 14 57 14 4 1 26 7 48 15 22 8 41 14 43
13 6 -4 354 112 532 177 190 70 283 107 403 161 29 13 55 24 58 24 12 0 342
155 459 216 238 123 302 158 445 242 386 227 764 490 1109 771 64 52 118 97
121 100 3 4 39 35 80 70 253 215 636 599 882 886 244 284 583 744 745 1011 6
10 38 62 71 114 57 92 182 308 182 316 0 3 11 21 24 42 27 44 222 428 262 517
14 33 46 105 71 160 24 55 65 152 89 215 25 63 52 129 59 145 28 61 146 411
204 602 59 196 143 516 167 638 1 6 13 64 28 130 14 66 28 136 31 155 3 19 7
46 10 60 5 27 7 38 29 180 18 111 28 187 40 295 15 128 19 162 22 179 2 10 6
73 10 140 3 66 8 124 10 128 16 28 23 732 9 988 -4 80 -9 169 -10 199 -3 59
-14 177 -20 226 -2 17 -7 62 -10 100 -7 75 -12 119 -20 176 -3 20 -8 54 -10
74 -3 21 -7 50 -10 64 -9 52 -14 87 -20 131 -29 210 -143 721 -224 1000 -120
413 -295 883 -454 1220 -22 47 -41 87 -42 90 -16 56 -276 541 -404 753 -89
148 -363 564 -380 577 -3 3 -21 28 -40 55 -33 48 -229 304 -240 315 -4 3 -24
28 -46 55 -310 390 -796 874 -1242 1238 -289 236 -614 464 -961 676 -100 61
-184 111 -186 111 -1 0 -65 35 -142 78 -166 93 -432 225 -639 317 -177 79
-569 235 -590 235 -7 0 -16 4 -19 9 -3 5 -18 11 -33 14 -16 2 -82 24 -148 47
-66 23 -127 43 -135 45 -8 2 -78 22 -155 45 -250 74 -691 178 -915 215 -19 3
-60 10 -90 15 -30 5 -75 12 -100 15 -25 3 -52 8 -60 10 -8 2 -35 6 -60 9 -25
3 -54 8 -65 10 -11 2 -56 7 -100 11 -44 4 -89 9 -100 10 -18 3 -128 15 -180
20 -11 1 -73 5 -138 9 -64 4 -143 10 -175 12 -53 5 -690 12 -695 8z m374
-3851 c101 -45 167 -139 174 -249 4 -80 -23 -149 -87 -219 -76 -84 -77 -145
-4 -230 14 -16 29 -46 33 -65 4 -19 8 -38 9 -42 1 -5 2 -62 3 -128 l1 -119 43
15 c247 88 548 90 806 4 76 -25 263 -103 391 -162 149 -69 200 -93 340 -161
181 -89 406 -206 505 -264 68 -40 103 -59 195 -111 25 -14 61 -35 80 -47 103
-64 364 -158 510 -184 36 -6 79 -14 95 -17 56 -10 349 -13 430 -3 265 31 505
115 735 257 41 25 77 49 80 52 3 3 25 21 50 40 116 88 156 129 158 160 9 116
94 231 200 270 72 27 124 31 191 14 291 -76 326 -473 52 -595 l-43 -19 36 -44
c20 -24 36 -47 36 -49 0 -3 -22 -10 -50 -17 l-50 -12 0 -244 c0 -213 2 -244
15 -244 31 0 93 -40 132 -84 24 -28 59 -90 92 -168 29 -67 107 -247 173 -398
129 -296 126 -289 188 -430 23 -52 84 -192 135 -310 74 -170 303 -696 392
-900 8 -19 19 -44 23 -55 5 -11 20 -45 33 -75 13 -30 91 -208 172 -395 81
-187 155 -358 165 -380 10 -22 41 -94 70 -160 29 -66 60 -138 70 -160 10 -22
48 -110 85 -195 146 -337 294 -678 318 -732 l26 -58 91 0 c57 0 89 -4 85 -10
-10 -16 -228 -176 -332 -243 -420 -272 -923 -469 -1389 -543 -20 -3 -46 -8
-58 -10 -11 -2 -46 -7 -76 -10 -30 -3 -61 -7 -68 -9 -74 -24 -793 -24 -832 0
-3 2 -32 6 -64 9 -85 9 -117 15 -251 42 -138 29 -131 27 -210 49 -33 9 -73 20
-90 25 -404 111 -874 351 -1238 635 l-77 60 104 3 c103 3 104 3 114 30 8 22
288 667 337 777 14 30 162 371 415 955 73 168 142 328 155 355 12 28 64 147
115 265 51 118 100 233 110 255 35 77 263 601 290 665 15 36 36 85 48 110 11
25 57 131 102 235 45 105 93 214 106 243 13 29 24 54 24 57 0 2 15 36 34 77
18 40 53 118 76 173 62 145 94 207 127 236 30 29 100 69 120 69 6 0 15 5 18
11 4 5 8 116 9 244 l2 234 -36 6 c-60 10 -68 19 -44 52 40 54 38 65 -23 103
l-56 35 -66 -64 c-224 -218 -531 -419 -779 -510 -112 -42 -264 -83 -352 -96
-20 -3 -47 -7 -60 -10 -60 -12 -184 -20 -295 -19 -114 1 -272 11 -284 18 -3 2
-28 7 -55 10 -101 14 -295 71 -424 125 -65 27 -382 186 -632 318 -52 28 -167
87 -255 133 -310 160 -431 223 -562 291 -172 90 -194 99 -343 126 -77 14 -228
14 -305 0 -11 -2 -39 -7 -62 -12 l-43 -8 -1 -226 c0 -124 -3 -237 -5 -251 -6
-33 -41 -99 -67 -127 -13 -15 -22 -41 -25 -75 -4 -49 -1 -57 33 -102 71 -91
65 174 63 -3190 -1 -1732 -5 -3068 -10 -3091 -5 -22 -23 -58 -40 -79 -43 -53
-60 -105 -48 -146 5 -18 31 -56 58 -84 33 -35 57 -73 72 -114 l23 -62 801 -1
c440 0 812 -2 826 -5 51 -9 150 -66 184 -106 55 -63 78 -123 84 -209 4 -64 1
-84 -21 -137 -29 -73 -65 -118 -129 -161 -93 -62 25 -59 -2042 -59 -1135 0
-1903 4 -1925 10 -101 26 -183 92 -227 185 -61 126 -42 262 51 370 36 42 131
99 180 107 17 2 391 5 832 5 l802 1 18 57 c13 40 34 74 75 120 32 35 59 73 59
86 4 53 -3 74 -37 124 -20 29 -42 70 -49 90 -11 30 -13 630 -14 3105 0 3390
-6 3096 63 3183 26 33 31 48 31 95 0 48 -5 61 -37 102 -53 68 -60 116 -56 366
l3 213 -35 9 c-73 19 -118 24 -230 25 -199 0 -276 -21 -510 -142 -271 -140
-408 -212 -545 -283 -841 -438 -877 -455 -1050 -511 -356 -115 -757 -125
-1115 -28 -41 11 -82 21 -90 23 -58 15 -205 77 -309 132 -202 105 -397 246
-561 404 l-75 72 -30 -16 c-17 -9 -44 -27 -59 -40 l-29 -23 26 -39 c15 -21 27
-42 27 -45 0 -4 -22 -13 -48 -19 l-48 -13 1 -232 c1 -127 5 -236 8 -242 4 -6
18 -14 33 -17 41 -11 99 -51 131 -93 17 -21 171 -364 358 -793 180 -415 336
-773 346 -795 10 -22 73 -166 139 -320 67 -154 174 -399 237 -545 63 -146 198
-456 300 -690 102 -234 201 -461 220 -505 20 -44 41 -93 48 -110 7 -16 24 -55
37 -85 13 -30 74 -169 134 -307 l109 -253 104 0 104 0 -89 -70 c-431 -339
-968 -588 -1510 -700 -165 -34 -196 -39 -269 -46 -38 -3 -73 -8 -76 -10 -29
-17 -497 -24 -684 -11 -547 39 -1105 213 -1580 492 -107 63 -263 164 -310 202
-16 13 -34 27 -40 31 -5 4 -39 30 -75 57 l-65 50 95 5 94 5 94 215 c123 283
250 575 417 960 75 173 144 333 154 355 50 110 89 200 181 415 56 129 110 255
122 280 11 25 29 65 40 90 11 25 25 58 32 75 8 16 35 80 61 140 46 108 66 154
98 226 9 20 55 124 101 231 46 107 93 215 104 239 26 58 108 247 142 329 15
36 37 88 50 115 13 28 62 140 110 250 47 110 111 256 141 324 62 144 112 207
189 240 l50 22 0 237 0 238 -50 13 c-28 7 -50 15 -50 18 0 3 16 25 35 49 19
23 35 44 35 47 0 2 -19 10 -41 17 -54 18 -134 96 -162 157 -31 69 -31 199 1
264 67 136 220 209 362 172 126 -32 222 -139 237 -263 6 -50 5 -49 128 -155
31 -27 202 -145 210 -145 2 0 26 -13 52 -28 151 -89 421 -176 617 -200 77 -9
386 -8 446 1 290 47 446 106 740 277 324 189 725 392 1080 547 69 30 143 63
165 73 55 25 211 76 260 86 22 4 47 9 55 10 155 30 364 22 527 -20 33 -9 78
-22 101 -30 l42 -15 0 47 c2 228 5 246 41 296 53 74 59 88 59 133 0 36 -7 49
-50 96 -68 74 -94 135 -94 217 1 132 88 245 214 280 44 12 135 3 181 -17z"/>
<path d="M5099 12178 c-1 -38 -1 -4284 0 -4310 1 -17 54 -18 976 -18 652 0
975 3 975 10 0 6 -4 18 -10 28 -12 22 -90 201 -90 206 0 2 -15 37 -34 78 -19
40 -45 100 -59 133 -23 56 -291 674 -321 740 -8 17 -125 287 -261 600 -136
314 -256 588 -266 610 -18 41 -443 1019 -621 1430 -54 127 -107 248 -117 270
-10 22 -29 65 -42 95 -34 80 -63 123 -98 143 l-31 18 -1 -33z"/>
<path d="M14890 12195 c-34 -18 -63 -59 -98 -141 -73 -169 -800 -1841 -822
-1889 -10 -22 -53 -121 -95 -220 -42 -99 -86 -200 -97 -224 -11 -24 -58 -132
-105 -240 -47 -108 -136 -313 -198 -456 -62 -143 -159 -366 -214 -495 -56
-129 -108 -248 -116 -265 -36 -80 -175 -404 -175 -409 0 -3 439 -6 975 -6 773
0 975 3 976 13 3 47 1 4338 -2 4341 -2 2 -15 -2 -29 -9z"/>
<path d="M4935 12179 c-30 -24 -57 -78 -176 -354 -45 -104 -90 -208 -99 -230
-10 -22 -49 -110 -85 -195 -37 -85 -75 -173 -85 -195 -10 -22 -61 -139 -113
-260 -129 -299 -235 -544 -252 -580 -7 -16 -59 -136 -115 -265 -56 -129 -117
-269 -135 -310 -29 -67 -135 -309 -187 -430 -10 -25 -23 -54 -28 -65 -5 -11
-41 -94 -81 -185 -39 -91 -79 -183 -89 -205 -10 -22 -46 -105 -80 -185 -34
-80 -70 -163 -80 -185 -47 -106 -230 -527 -230 -530 0 -4 -59 -134 -67 -147
-2 -5 435 -8 971 -8 l976 0 0 2175 c0 1217 -4 2175 -9 2175 -4 0 -21 -10 -36
-21z"/>
<path d="M15040 10025 l0 -2175 974 0 975 0 -26 58 c-14 31 -67 154 -118 272
-51 118 -164 377 -250 575 -86 198 -162 374 -170 390 -7 17 -22 50 -33 75 -35
79 -784 1802 -819 1885 -19 44 -42 96 -50 115 -9 19 -17 37 -18 40 -1 3 -9 23
-19 45 -67 155 -184 424 -268 615 -70 162 -106 233 -128 253 -17 15 -35 27
-40 27 -7 0 -10 -755 -10 -2175z"/>
</g>
</svg>
